<?xml version="1.0" encoding="UTF-8"?>
<svg id="Laag_2" data-name="Laag 2" xmlns="http://www.w3.org/2000/svg" viewBox="0 0 983.79 814.86">
  <defs>
    <style>
      .cls-1 {
        fill: #fefbf8;
      }

      .cls-2 {
        stroke: #5f89bb;
        stroke-width: 2px;
      }

      .cls-2, .cls-3, .cls-4 {
        fill: none;
        stroke-miterlimit: 10;
      }

      .cls-3 {
        stroke: #e94e1b;
        stroke-width: .5px;
      }

      .cls-5 {
        fill: #ecebeb;
        stroke: #000;
        stroke-linecap: round;
        stroke-linejoin: round;
      }

      .cls-4 {
        stroke: #1d1d1b;
      }
    </style>
  </defs>
  <g id="Plakrand">
    <path class="cls-1" d="M945.56,338.76c-1.25-22.03-3.11-44.62-5.87-67.56-2.15.41-4.36.63-6.63.63-19.57,0-35.43-15.86-35.43-35.43,0-17.99,13.41-32.84,30.78-35.12-3.07-14.89-6.6-29.83-10.68-44.79l-27.63-27.99h-100.2l-28.07,27.99v182.27s-3.22-26.74-3.22-26.74l-17.91-39.03,11.33-30.09-29.66-42.49-30.62,3.83-18.06-19.8-46.53-27.82V.58l-367.14,56.69v99.36l-46.53,27.82-18.06,19.8-30.62-3.83-29.66,42.49,11.33,30.09-17.91,39.03-3.22,26.74-.79-182.27-17.58-27.99h-63.77l-17.86,27.99s2.06,16.29,4.62,44.7c1.31-.15,2.63-.23,3.98-.23,19.57,0,35.43,15.86,35.43,35.43s-15.2,34.75-34.2,35.4c1.2,20.32,2.27,42.76,3.05,66.89H.5v137.48h38.22c-.58,21.83-1.52,44.19-2.87,66.86,18.69.98,33.55,16.45,33.55,35.38s-15.86,35.43-35.43,35.43c-1.25,0-2.49-.07-3.71-.19-1.43,14.34-3.05,28.73-4.88,43.11l17.86,27.99h63.77l18.37-27.99v-180.53l3.22,26.61,17.91,39.15-11.33,30.09,29.66,42.49,30.62-3.83,18.06,19.8,46.53,27.82v99.22l367.14,56.69.1-155.97,46.43-27.76,18.06-19.8,30.62,3.83,29.66-42.49-11.33-30.09,17.91-39.15,3.22-26.61v180.53s28.07,27.99,28.07,27.99h100.2l27.63-27.99s4.34-15.77,9.74-43.36c-16.91-2.69-29.83-17.33-29.83-34.99,0-19.57,15.86-35.43,35.43-35.43,1.93,0,3.83.16,5.67.46,2.63-20.39,4.99-42.97,6.69-67.31v.04s37.73,0,37.73,0l.13-137.41h-37.73Z"/>
  </g>
  <g id="Vouwlijnen">
    <line class="cls-2" x1="146.5" y1="273" x2="238.76" y2="338.69"/>
    <line class="cls-2" x1="260.03" y1="156.63" x2="288.02" y2="270.16"/>
    <line class="cls-2" x1="146.5" y1="541.86" x2="238.76" y2="476.17"/>
    <line class="cls-2" x1="260.03" y1="658.23" x2="288.02" y2="544.69"/>
    <line class="cls-2" x1="740.91" y1="273" x2="648.65" y2="338.69"/>
    <line class="cls-2" x1="627.38" y1="156.63" x2="599.39" y2="270.16"/>
    <line class="cls-2" x1="740.91" y1="541.86" x2="648.65" y2="476.17"/>
    <line class="cls-2" x1="627.38" y1="658.23" x2="599.39" y2="544.69"/>
    <line class="cls-2" x1="260.03" y1="156.63" x2="627.17" y2="156.63"/>
    <line class="cls-2" x1="627.27" y1="658.3" x2="260.03" y2="658.36"/>
    <line class="cls-2" x1="762.02" y1="338.69" x2="762.02" y2="476.24"/>
    <line class="cls-2" x1="125.28" y1="338.69" x2="125.28" y2="476.24"/>
    <polygon class="cls-2" points="288.02 544.69 238.76 476.17 238.76 338.69 288.02 270.16 599.39 270.16 648.65 338.69 648.65 476.17 599.39 544.69 288.02 544.69"/>
    <line class="cls-3" x1="213.5" y1="184.45" x2="260.03" y2="156.63"/>
    <line class="cls-2" x1="146.5" y1="273" x2="195.44" y2="204.25"/>
    <line class="cls-2" x1="146.5" y1="542" x2="195.44" y2="610.74"/>
    <line class="cls-3" x1="213.5" y1="630.54" x2="260.03" y2="658.36"/>
    <line class="cls-3" x1="673.7" y1="184.45" x2="627.17" y2="156.63"/>
    <line class="cls-2" x1="740.7" y1="273" x2="691.76" y2="204.25"/>
    <line class="cls-2" x1="740.7" y1="542" x2="691.76" y2="610.74"/>
    <line class="cls-3" x1="673.7" y1="630.54" x2="627.27" y2="658.3"/>
    <line class="cls-2" x1="25.38" y1="156.49" x2="124.59" y2="156.49"/>
    <line class="cls-2" x1="25.38" y1="656.76" x2="125.38" y2="656.76"/>
    <line class="cls-2" x1="761.83" y1="656.76" x2="917.73" y2="656.76"/>
    <line class="cls-2" x1="761.83" y1="156.49" x2="917.73" y2="156.49"/>
    <line class="cls-2" x1="238.76" y1="338.69" x2="125.38" y2="338.69"/>
    <line class="cls-2" x1="125.38" y1="476.17" x2="238.76" y2="476.17"/>
    <line class="cls-2" x1="648.64" y1="338.69" x2="762.02" y2="338.69"/>
    <line class="cls-2" x1="648.64" y1="476.17" x2="762.02" y2="476.17"/>
    <line class="cls-2" x1="195.44" y1="204.25" x2="288.02" y2="270.16"/>
    <line class="cls-2" x1="691.76" y1="610.74" x2="599.39" y2="544.98"/>
    <line class="cls-2" x1="195.44" y1="610.74" x2="287.81" y2="544.98"/>
    <line class="cls-2" x1="691.76" y1="204.25" x2="599.39" y2="270.02"/>
    <line class="cls-2" x1="38.26" y1="338.69" x2="38.72" y2="476.17"/>
    <line class="cls-2" x1="38.26" y1="338.69" x2="125.38" y2="338.76"/>
    <line class="cls-2" x1="38.72" y1="476.17" x2="125.38" y2="476.24"/>
    <line class="cls-2" x1="761.83" y1="338.76" x2="946.56" y2="338.76"/>
    <line class="cls-2" x1="761.83" y1="295.81" x2="942.06" y2="295.81"/>
    <line class="cls-2" x1="761.83" y1="211.42" x2="907.95" y2="211.42"/>
    <line class="cls-2" x1="761.83" y1="476.17" x2="945.44" y2="476.17"/>
    <line class="cls-2" x1="761.83" y1="519.12" x2="941.62" y2="519.12"/>
    <line class="cls-2" x1="761.83" y1="603.51" x2="908.06" y2="603.51"/>
    <line class="cls-2" x1="125.39" y1="295.81" x2="36.51" y2="295.81"/>
    <line class="cls-2" x1="124.83" y1="211.42" x2="59.06" y2="211.42"/>
    <line class="cls-2" x1="125.59" y1="603.39" x2="59.11" y2="603.39"/>
    <line class="cls-2" x1="125.28" y1="519.12" x2="37.14" y2="519.12"/>
    <line class="cls-2" x1="945.56" y1="338.76" x2="945.56" y2="476.17"/>
  </g>
  <g id="Snijlijnen">
    <line class="cls-4" x1="128.59" y1="312.02" x2="238.76" y2="338.69"/>
    <line class="cls-4" x1="213.5" y1="184.45" x2="288.02" y2="270.16"/>
    <line class="cls-4" x1="128.59" y1="502.84" x2="238.76" y2="476.17"/>
    <line class="cls-4" x1="213.5" y1="630.41" x2="288.02" y2="544.69"/>
    <line class="cls-4" x1="758.82" y1="312.02" x2="648.65" y2="338.69"/>
    <line class="cls-4" x1="673.91" y1="184.45" x2="599.39" y2="270.16"/>
    <line class="cls-4" x1="758.82" y1="502.84" x2="648.65" y2="476.17"/>
    <line class="cls-4" x1="673.91" y1="630.41" x2="599.39" y2="544.69"/>
    <circle class="cls-5" cx="18.94" cy="384.14" r="4.61"/>
    <circle class="cls-5" cx="18.94" cy="430.22" r="4.61"/>
    <circle class="cls-5" cx="965.11" cy="384.14" r="4.61"/>
    <circle class="cls-5" cx="965.11" cy="430.22" r="4.61"/>
    <path class="cls-4" d="M945.56,338.76c-1.25-22.03-3.11-44.62-5.87-67.56-2.15.41-4.36.63-6.63.63-19.57,0-35.43-15.86-35.43-35.43,0-17.99,13.41-32.84,30.78-35.12-3.07-14.89-6.6-29.83-10.68-44.79l-27.63-27.99h-100.2l-28.07,27.99v182.27s-3.22-26.74-3.22-26.74l-17.91-39.03,11.33-30.09-29.66-42.49-30.62,3.83-18.06-19.8-46.53-27.82V.58l-367.14,56.69v99.36l-46.53,27.82-18.06,19.8-30.62-3.83-29.66,42.49,11.33,30.09-17.91,39.03-3.22,26.74-.79-182.27-17.58-27.99h-63.77l-17.86,27.99s2.06,16.29,4.62,44.7c1.31-.15,2.63-.23,3.98-.23,19.57,0,35.43,15.86,35.43,35.43s-15.2,34.75-34.2,35.4c1.2,20.32,2.27,42.76,3.05,66.89H.5v137.48h38.22c-.58,21.83-1.52,44.19-2.87,66.86,18.69.98,33.55,16.45,33.55,35.38s-15.86,35.43-35.43,35.43c-1.25,0-2.49-.07-3.71-.19-1.43,14.34-3.05,28.73-4.88,43.11l17.86,27.99h63.77l18.37-27.99v-180.53l3.22,26.61,17.91,39.15-11.33,30.09,29.66,42.49,30.62-3.83,18.06,19.8,46.53,27.82v99.22l367.14,56.69.1-155.97,46.43-27.76,18.06-19.8,30.62,3.83,29.66-42.49-11.33-30.09,17.91-39.15,3.22-26.61v180.53s28.07,27.99,28.07,27.99h100.2l27.63-27.99s4.34-15.77,9.74-43.36c-16.91-2.69-29.83-17.33-29.83-34.99,0-19.57,15.86-35.43,35.43-35.43,1.93,0,3.83.16,5.67.46,2.63-20.39,4.99-42.97,6.69-67.31v.04s37.73,0,37.73,0l.13-137.41h-37.73Z"/>
  </g>
</svg>